<svg width="585" height="243" viewBox="0 0 585 243" fill="none" xmlns="http://www.w3.org/2000/svg">
<path d="M1.01431 389.48C34.5762 387.108 66.7307 384.744 67.0604 384.372C73.7764 376.78 109.819 336.264 112.192 338.657C114.81 341.297 139.187 360.56 144.138 354.148C149.088 347.735 193.339 245.602 193.339 245.602C193.339 245.602 220.837 296.15 225.458 290.164C230.077 284.178 283.794 135.319 288.655 140.223C293.517 145.127 329.902 216.046 336.172 207.922C342.445 199.799 371.775 148.014 371.775 148.014C371.775 148.014 400.55 183.121 405.17 177.137C409.791 171.15 449.441 107.723 449.441 107.723C449.441 107.723 421.677 91.125 423.658 88.5605C425.638 85.9943 547.531 1.33736 547.531 1.33736L512.494 149.266L490.917 133.403C488.127 131.356 485.336 129.309 482.546 127.262C480.573 125.814 466.558 142.832 453.386 160.022C430.56 189.812 435.827 183.196 405.135 232.018C399.907 240.337 401.68 241.92 396.577 236.375C388.884 228.015 371.197 208.304 373.111 205.825C375.549 202.667 335.869 285.469 334.21 283.798C332.554 282.125 291.239 207.501 293.633 209.915C296.026 212.33 231.348 337.699 229.962 337.798C228.576 337.897 195.101 298.516 194.971 296.137C194.841 293.761 197.441 290.391 197.55 292.373C197.658 294.354 151.368 383.597 149.158 381.37C146.949 379.14 110.016 362.485 111.154 361.011C112.292 359.537 112.143 356.813 112.292 359.537C112.441 362.262 70.7194 385.385 72.4532 385.261C74.186 385.138 95.0974 372.9 102.226 375.97C115.867 381.847 115.481 385.895 132.559 384.674C142.257 383.981 159.614 383.974 168.224 379.507C173.544 376.748 181.39 372.569 190.087 371.868C379.938 356.574 412.564 353.762 591.332 341.511" stroke="white" stroke-width="2" stroke-miterlimit="10" stroke-linecap="round" stroke-linejoin="round"/>
</svg>
