<svg width="585" height="243" fill="none" xmlns="http://www.w3.org/2000/svg"><path d="M1.014 389.48c33.562-2.372 65.717-4.736 66.046-5.108 6.716-7.592 42.759-48.108 45.132-45.715 2.618 2.64 26.995 21.903 31.946 15.491 4.95-6.413 49.201-108.546 49.201-108.546s27.498 50.548 32.119 44.562c4.619-5.986 58.336-154.845 63.197-149.941 4.862 4.904 41.247 75.823 47.517 67.699 6.273-8.123 35.603-59.908 35.603-59.908s28.775 35.107 33.395 29.123c4.621-5.987 44.271-69.414 44.271-69.414s-27.764-16.598-25.783-19.162c1.98-2.567 123.873-87.224 123.873-87.224l-35.037 147.929-21.577-15.863-8.371-6.141c-1.973-1.448-15.988 15.57-29.16 32.76-22.826 29.79-17.559 23.174-48.251 71.996-5.228 8.319-3.455 9.902-8.558 4.357-7.693-8.36-25.38-28.071-23.466-30.55 2.438-3.158-37.242 79.644-38.901 77.973-1.656-1.673-42.971-76.297-40.577-73.883 2.393 2.415-62.285 127.784-63.671 127.883-1.386.099-34.861-39.282-34.991-41.661-.13-2.376 2.47-5.746 2.579-3.764.108 1.981-46.182 91.224-48.392 88.997-2.209-2.23-39.142-18.885-38.004-20.359 1.138-1.474.989-4.198 1.138-1.474.149 2.725-41.573 25.848-39.839 25.724 1.733-.123 22.644-12.361 29.773-9.291 13.641 5.877 13.255 9.925 30.333 8.704 9.698-.693 27.055-.7 35.665-5.167 5.32-2.759 13.166-6.938 21.863-7.639 189.851-15.294 222.477-18.106 401.245-30.357" stroke="#fff" stroke-width="2" stroke-miterlimit="10" stroke-linecap="round" stroke-linejoin="round"/></svg>